HIERARCHY
ROOT joint_0
{
	OFFSET 0.000000 0.000000 0.000000
	CHANNELS 6 Xposition Yposition Zposition Zrotation Yrotation Xrotation 
	JOINT joint_1
	{
		OFFSET 4.520508 -1.939880 86.268921
		CHANNELS 3 Zrotation Yrotation Xrotation
		JOINT joint_2
		{
			OFFSET -4.459717 -0.438538 78.934082
			CHANNELS 3 Zrotation Yrotation Xrotation
			JOINT joint_3
			{
				OFFSET -5.197754 -0.781128 78.796997
				CHANNELS 3 Zrotation Yrotation Xrotation
				JOINT joint_4
				{
					OFFSET 2.952026 -3.710571 109.812988
					CHANNELS 3 Zrotation Yrotation Xrotation
					JOINT joint_5
					{
						OFFSET 24.716797 -5.488037 87.903931
						CHANNELS 3 Zrotation Yrotation Xrotation
						End Site
						{
							OFFSET 0.000000 0.000000 0.000000
						}
					}
				}
				JOINT joint_6
				{
					OFFSET -3.154419 -25.484680 60.934937
					CHANNELS 3 Zrotation Yrotation Xrotation
					JOINT joint_7
					{
						OFFSET -28.997192 -144.472229 -32.671997
						CHANNELS 3 Zrotation Yrotation Xrotation
						JOINT joint_8
						{
							OFFSET 19.867676 -18.614380 -249.897949
							CHANNELS 3 Zrotation Yrotation Xrotation
							JOINT joint_9
							{
								OFFSET 5.281982 -13.816650 -264.993042
								CHANNELS 3 Zrotation Yrotation Xrotation
								End Site
								{
									OFFSET 0.000000 0.000000 0.000000
								}
							}
						}
					}
				}
				JOINT joint_10
				{
					OFFSET 6.494995 21.336792 62.257935
					CHANNELS 3 Zrotation Yrotation Xrotation
					JOINT joint_11
					{
						OFFSET 31.106567 145.200745 -27.007935
						CHANNELS 3 Zrotation Yrotation Xrotation
						JOINT joint_12
						{
							OFFSET 29.119141 24.684326 -248.460083
							CHANNELS 3 Zrotation Yrotation Xrotation
							JOINT joint_13
							{
								OFFSET 21.220093 31.248413 -262.703979
								CHANNELS 3 Zrotation Yrotation Xrotation
								End Site
								{
									OFFSET 0.000000 0.000000 0.000000
								}
							}
						}
					}
				}
			}
		}
	}
	JOINT joint_14
	{
		OFFSET -15.458496 -88.861694 -109.593018
		CHANNELS 3 Zrotation Yrotation Xrotation
		JOINT joint_15
		{
			OFFSET -6.193359 6.837952 -506.710999
			CHANNELS 3 Zrotation Yrotation Xrotation
			JOINT joint_16
			{
				OFFSET -35.096680 13.289795 -435.677025
				CHANNELS 3 Zrotation Yrotation Xrotation
				JOINT joint_17
				{
					OFFSET 158.491211 -33.916565 -71.771002
					CHANNELS 3 Zrotation Yrotation Xrotation
					End Site
					{
						OFFSET 0.000000 0.000000 0.000000
					}
				}
			}
		}
	}
	JOINT joint_18
	{
		OFFSET 23.116943 86.574158 -110.082031
		CHANNELS 3 Zrotation Yrotation Xrotation
		JOINT joint_19
		{
			OFFSET -6.125854 -0.283569 -506.757019
			CHANNELS 3 Zrotation Yrotation Xrotation
			JOINT joint_20
			{
				OFFSET -63.240234 11.589966 -432.537994
				CHANNELS 3 Zrotation Yrotation Xrotation
				JOINT joint_21
				{
					OFFSET 156.074219 -41.487305 -73.077999
					CHANNELS 3 Zrotation Yrotation Xrotation
					End Site
					{
						OFFSET 0.000000 0.000000 0.000000
					}
				}
			}
		}
	}
}
MOTION
Frames: 10
Frame Time: 0.016667
-1108.959717 854.582947 1141.229980 -14.138952 -0.733046 0.361414 -0.230343 -0.955159 -0.900937 -0.175978 0.180493 0.190443 -0.200108 -0.165329 -0.125282 -0.095426 0.067924 0.360311 0.000000 0.000000 0.000000 -0.063712 1.039400 -0.614706 0.184844 0.628831 1.175955 -0.085924 1.018207 -1.654946 0.000000 0.000000 0.000000 0.666240 1.015341 0.667530 -0.057550 1.158965 -0.601127 0.061742 -0.917782 1.983581 0.000000 0.000000 0.000000 0.277850 0.025446 -0.844097 0.269429 0.356733 0.013066 0.258847 0.583031 0.242096 0.000000 0.000000 0.000000 -0.058942 0.092006 -0.073207 -0.057217 -1.045084 -0.118158 -0.058210 1.499370 0.370810 0.000000 0.000000 0.000000 
-1109.268066 854.702515 1141.237061 -14.138420 -0.751469 0.368763 -0.228578 -0.944515 -0.899229 -0.174311 0.179754 0.190285 -0.198435 -0.165317 -0.125353 -0.097483 0.048569 0.363503 0.000000 0.000000 0.000000 -0.060513 1.049060 -0.615728 0.188535 0.632640 1.203719 -0.085349 1.008883 -1.676168 0.000000 0.000000 0.000000 0.673724 1.021827 0.662342 -0.056256 1.161698 -0.594338 0.063654 -0.906972 1.988365 0.000000 0.000000 0.000000 0.276301 0.000414 -0.859386 0.268596 0.412040 0.023834 0.257201 0.572128 0.239016 0.000000 0.000000 0.000000 -0.059677 0.081969 -0.083779 -0.058200 -1.021950 -0.117266 -0.059565 1.502930 0.371115 0.000000 0.000000 0.000000 
-1109.567871 854.839417 1141.241943 -14.141277 -0.769451 0.375203 -0.228349 -0.934154 -0.892334 -0.174462 0.180535 0.189401 -0.198528 -0.165529 -0.125042 -0.098490 0.033830 0.363916 0.000000 0.000000 0.000000 -0.055847 1.055140 -0.617061 0.191657 0.634196 1.226826 -0.084685 0.998232 -1.693821 0.000000 0.000000 0.000000 0.686113 1.029366 0.658983 -0.055402 1.165957 -0.592515 0.065105 -0.897951 1.990948 0.000000 0.000000 0.000000 0.275994 -0.021066 -0.874270 0.268850 0.458676 0.033157 0.256769 0.565528 0.237407 0.000000 0.000000 0.000000 -0.057877 0.072600 -0.095505 -0.056678 -0.999343 -0.114962 -0.058332 1.502586 0.371599 0.000000 0.000000 0.000000 
-1109.855835 855.003967 1141.244995 -14.146695 -0.786675 0.380824 -0.229576 -0.919806 -0.878254 -0.176554 0.176199 0.186049 -0.200150 -0.162598 -0.122441 -0.097473 0.024132 0.358088 0.000000 0.000000 0.000000 -0.056282 1.055583 -0.619565 0.193827 0.630807 1.240578 -0.084078 0.988489 -1.706091 0.000000 0.000000 0.000000 0.701837 1.037261 0.658084 -0.055139 1.171823 -0.597390 0.065883 -0.890725 1.989248 0.000000 0.000000 0.000000 0.276975 -0.035879 -0.889968 0.270055 0.489643 0.042074 0.257740 0.564756 0.237680 0.000000 0.000000 0.000000 -0.054488 0.062795 -0.110044 -0.053657 -0.976124 -0.109117 -0.055198 1.499681 0.372296 0.000000 0.000000 0.000000 
-1110.134888 855.186768 1141.244995 -14.154832 -0.803182 0.385131 -0.231351 -0.905709 -0.857449 -0.179640 0.172593 0.180451 -0.202569 -0.159423 -0.118949 -0.095656 0.018433 0.350232 0.000000 0.000000 0.000000 -0.059709 1.052998 -0.622790 0.195461 0.624612 1.249704 -0.083368 0.977215 -1.714857 0.000000 0.000000 0.000000 0.718634 1.045962 0.659128 -0.055315 1.179761 -0.607509 0.066143 -0.885670 1.985268 0.000000 0.000000 0.000000 0.279011 -0.047205 -0.904977 0.272161 0.511532 0.049841 0.259803 0.568436 0.239401 0.000000 0.000000 0.000000 -0.048633 0.053200 -0.125393 -0.048203 -0.953093 -0.101731 -0.049527 1.492181 0.372964 0.000000 0.000000 0.000000 
-1110.417725 855.381165 1141.244019 -14.165436 -0.820938 0.388067 -0.233883 -0.888707 -0.835860 -0.183451 0.169131 0.175944 -0.205828 -0.155243 -0.116247 -0.093873 0.017023 0.343447 0.000000 0.000000 0.000000 -0.058459 1.049290 -0.625804 0.196842 0.618385 1.259199 -0.082387 0.961893 -1.720214 0.000000 0.000000 0.000000 0.734461 1.054400 0.659485 -0.055661 1.187704 -0.618860 0.066243 -0.881877 1.981306 0.000000 0.000000 0.000000 0.282182 -0.056570 -0.918287 0.275387 0.530842 0.055830 0.262897 0.573792 0.241948 0.000000 0.000000 0.000000 -0.041920 0.046174 -0.139907 -0.041863 -0.932886 -0.094203 -0.042955 1.485855 0.374367 0.000000 0.000000 0.000000 
-1110.707397 855.587158 1141.241943 -14.179613 -0.841476 0.389133 -0.236033 -0.866344 -0.812476 -0.186991 0.165207 0.170670 -0.208715 -0.152617 -0.112560 -0.091234 0.025213 0.335658 0.000000 0.000000 0.000000 -0.052477 1.046850 -0.629473 0.197929 0.614038 1.270650 -0.080868 0.938507 -1.721656 0.000000 0.000000 0.000000 0.744419 1.063993 0.656973 -0.055926 1.197303 -0.630267 0.066148 -0.879508 1.977216 0.000000 0.000000 0.000000 0.286808 -0.063742 -0.928944 0.280106 0.550049 0.059328 0.267251 0.580769 0.245412 0.000000 0.000000 0.000000 -0.034155 0.043902 -0.152701 -0.034402 -0.916827 -0.087032 -0.035314 1.482083 0.376949 0.000000 0.000000 0.000000 
-1110.999878 855.804504 1141.239014 -14.195990 -0.862916 0.388862 -0.238187 -0.841844 -0.788402 -0.190510 0.160800 0.166376 -0.211660 -0.147273 -0.109597 -0.088790 0.036341 0.329227 0.000000 0.000000 0.000000 -0.045215 1.043276 -0.632814 0.198814 0.608914 1.282367 -0.079069 0.910987 -1.719889 0.000000 0.000000 0.000000 0.750553 1.072867 0.653745 -0.056378 1.206990 -0.643010 0.065900 -0.878666 1.973537 0.000000 0.000000 0.000000 0.292229 -0.069203 -0.937837 0.285613 0.566569 0.060937 0.272318 0.589875 0.249655 0.000000 0.000000 0.000000 -0.025326 0.043941 -0.164706 -0.025846 -0.903840 -0.079900 -0.026600 1.479871 0.380449 0.000000 0.000000 0.000000 
-1111.298462 856.032104 1141.239014 -14.213321 -0.883096 0.387586 -0.240343 -0.814831 -0.764084 -0.194077 0.157035 0.161059 -0.214561 -0.143032 -0.105965 -0.086858 0.050724 0.325384 0.000000 0.000000 0.000000 -0.038854 1.038619 -0.635677 0.199957 0.602427 1.294744 -0.077599 0.888555 -1.718910 0.000000 0.000000 0.000000 0.757444 1.079781 0.648023 -0.056916 1.213825 -0.654853 0.066015 -0.876013 1.971079 0.000000 0.000000 0.000000 0.298205 -0.074988 -0.945640 0.291662 0.579279 0.061385 0.277971 0.602391 0.254892 0.000000 0.000000 0.000000 -0.017197 0.044100 -0.175347 -0.017957 -0.895474 -0.073715 -0.018583 1.482612 0.384936 0.000000 0.000000 0.000000 
-1111.600464 856.269226 1141.243042 -14.231914 -0.902117 0.385436 -0.242188 -0.783349 -0.740445 -0.197300 0.150045 0.155487 -0.216998 -0.135897 -0.101824 -0.085370 0.066594 0.323511 0.000000 0.000000 0.000000 -0.033803 1.032109 -0.637932 0.201791 0.593420 1.308946 -0.076634 0.873719 -1.721914 0.000000 0.000000 0.000000 0.764858 1.083583 0.638899 -0.057555 1.216347 -0.665001 0.066858 -0.870291 1.971783 0.000000 0.000000 0.000000 0.305131 -0.080394 -0.952280 0.298637 0.587348 0.060110 0.284564 0.618671 0.261360 0.000000 0.000000 0.000000 -0.010182 0.045640 -0.184724 -0.011138 -0.894040 -0.068325 -0.011595 1.493198 0.391022 0.000000 0.000000 0.000000 
